<svg width="24" height="24" viewBox="0 0 24 24" fill="none" xmlns="http://www.w3.org/2000/svg">
<path d="M17.5 4.66675L20.25 7.41675L17.5 10.1667" stroke="white" stroke-width="1.83333" stroke-linecap="round" stroke-linejoin="round"/>
<path d="M17.5 19.3333L20.25 16.5833L17.5 13.8333" stroke="white" stroke-width="1.83333" stroke-linecap="round" stroke-linejoin="round"/>
<path d="M3.75 7.41675H6.5C7.71558 7.41675 8.88136 7.89963 9.74091 8.75918C10.6004 9.61872 11.0833 10.7845 11.0833 12.0001C11.0833 13.2157 11.5662 14.3814 12.4258 15.241C13.2853 16.1005 14.4511 16.5834 15.6667 16.5834H20.25" stroke="white" stroke-width="1.83333" stroke-linecap="round" stroke-linejoin="round"/>
<path d="M20.25 7.41675H15.6667C14.6747 7.41529 13.7093 7.73709 12.9167 8.33342M9.25 15.6668C8.45714 16.2627 7.49187 16.5845 6.5 16.5834H3.75" stroke="white" stroke-width="1.83333" stroke-linecap="round" stroke-linejoin="round"/>
</svg>
